<?xml version="1.0" standalone="no"?>
<!DOCTYPE svg PUBLIC "-//W3C//DTD SVG 20010904//EN"
 "http://www.w3.org/TR/2001/REC-SVG-20010904/DTD/svg10.dtd">
<svg version="1.0" xmlns="http://www.w3.org/2000/svg"
 width="1600.000000pt" height="931.000000pt" viewBox="0 0 1600.000000 931.000000"
 preserveAspectRatio="xMidYMid meet">
<metadata>
Created by potrace 1.15, written by Peter Selinger 2001-2017
</metadata>
<g transform="translate(0.000000,931.000000) scale(0.100000,-0.100000)"
fill="#000000" stroke="none">
<path d="M1626 9218 c-3 -50 -6 -204 -6 -342 0 -138 -5 -388 -10 -556 -5 -168
-10 -404 -11 -525 l-2 -220 174 4 c96 2 175 4 176 5 1 1 7 294 13 652 5 357
11 745 13 862 2 116 0 212 -4 212 -5 0 -9 -44 -9 -98 0 -55 -3 -147 -6 -205
l-7 -106 -51 -5 c-28 -3 -98 -7 -155 -8 l-104 -3 2 213 c1 116 0 212 -2 212
-2 0 -7 -41 -11 -92z m324 -603 c-1 -137 -5 -421 -9 -630 l-6 -380 -154 -8
c-85 -4 -158 -4 -163 1 -8 8 7 980 18 1169 l6 92 31 4 c18 2 88 4 156 3 l124
-1 -3 -250z"/>
<path d="M2036 9013 c-13 -599 -16 -787 -21 -1253 -3 -261 -8 -631 -11 -822
-4 -225 -3 -348 3 -348 7 0 13 194 17 528 18 1453 26 1996 31 2090 3 58 2 102
-3 102 -6 0 -12 -130 -16 -297z"/>
<path d="M15594 9198 c8 -152 38 -1462 51 -2273 3 -181 7 -456 10 -610 3 -154
12 -788 20 -1410 8 -621 17 -1211 20 -1310 3 -99 7 -283 10 -410 44 -1921 71
-2894 81 -2904 2 -2 7 -2 10 2 3 3 -4 333 -15 734 -12 400 -25 937 -31 1193
-12 541 -27 1186 -35 1450 -3 102 -10 525 -15 940 -15 1184 -29 2115 -35 2360
-2 124 -7 385 -10 580 -9 542 -34 1595 -41 1688 -3 46 -10 82 -16 82 -7 0 -8
-38 -4 -112z"/>
<path d="M6900 8519 c-58 -9 -143 -23 -190 -31 l-85 -13 2 -50 c1 -27 9 -97
17 -155 9 -58 44 -296 77 -530 33 -234 63 -428 67 -432 8 -8 453 59 463 69 4
5 3 35 -2 67 -6 33 -30 206 -54 385 -25 180 -57 413 -71 519 l-27 192 -46 -1
c-25 -1 -93 -10 -151 -20z m194 -126 c10 -71 28 -204 41 -298 34 -238 82 -590
90 -652 8 -62 30 -53 -215 -88 -96 -14 -180 -28 -187 -30 -7 -2 -15 0 -18 4
-3 5 -36 231 -75 502 -38 272 -74 523 -79 559 -6 35 -9 66 -6 68 5 5 362 60
401 61 l31 1 17 -127z"/>
<path d="M8006 8513 c-7 -8 1 -815 10 -1041 l6 -132 237 2 236 3 -3 495 c-1
272 -5 537 -8 588 l-6 92 -232 0 c-128 0 -236 -3 -240 -7z m458 -410 c3 -219
7 -474 9 -568 l2 -170 -216 -3 -217 -2 -6 327 c-3 181 -8 437 -11 571 l-5 242
219 0 219 0 6 -397z"/>
<path d="M9396 8408 c-4 -18 -10 -69 -15 -113 -11 -93 -49 -382 -92 -710 -16
-126 -31 -245 -32 -264 l-2 -35 105 -18 c235 -40 355 -57 361 -50 4 4 26 156
49 337 84 666 100 790 100 796 0 4 -30 11 -67 17 -102 16 -366 62 -385 68 -13
4 -18 -3 -22 -28z m244 -30 c107 -18 198 -36 201 -40 3 -5 0 -52 -7 -106 -7
-53 -22 -167 -33 -252 -65 -495 -83 -631 -88 -683 -3 -32 -9 -59 -12 -61 -7
-5 -413 62 -419 69 -5 4 2 58 53 450 13 105 36 278 49 385 34 259 36 270 49
270 7 0 100 -14 207 -32z"/>
<path d="M5690 8142 c-42 -20 -96 -46 -120 -56 -61 -27 -214 -97 -218 -101 -2
-2 21 -65 52 -141 30 -77 75 -193 101 -259 132 -345 259 -661 269 -672 8 -8
34 -1 101 29 50 21 142 62 205 90 63 27 119 53 123 58 4 4 -18 74 -51 156 -32
82 -73 185 -90 229 -32 83 -149 383 -229 588 -25 64 -51 117 -57 116 -6 0 -45
-17 -86 -37z m155 -164 c37 -95 105 -270 151 -388 46 -118 106 -273 134 -345
27 -71 50 -134 50 -140 0 -6 -26 -22 -57 -35 -32 -13 -117 -50 -190 -82 -72
-32 -136 -58 -141 -58 -5 0 -51 107 -102 238 -335 855 -315 801 -306 810 12
12 360 170 377 171 11 1 34 -47 84 -171z"/>
<path d="M733 7463 c7 -665 -5 -1791 -25 -2493 -25 -847 -10 -2154 33 -2835 5
-88 14 -236 19 -330 13 -232 38 -600 55 -830 8 -104 22 -304 31 -442 10 -139
21 -253 26 -253 4 0 8 8 8 18 0 22 -37 557 -50 727 -40 518 -79 1244 -101
1845 -21 590 -16 1871 11 2775 11 373 8 2435 -3 2435 -7 0 -8 -213 -4 -617z"/>
<path d="M10814 8028 c-6 -20 -158 -371 -199 -463 -67 -147 -235 -540 -235
-549 0 -7 44 -33 98 -59 227 -108 313 -147 321 -147 9 0 53 97 272 600 77 179
152 351 166 383 14 32 24 59 22 62 -7 6 -423 195 -430 195 -4 0 -11 -10 -15
-22z m91 -28 c259 -118 307 -140 315 -140 21 0 7 -44 -64 -206 -41 -93 -113
-259 -161 -369 -136 -313 -197 -450 -200 -453 -2 -2 -27 8 -57 21 -107 50
-332 158 -336 161 -3 4 65 164 315 736 47 107 94 214 104 238 10 24 22 41 26
39 5 -2 31 -14 58 -27z"/>
<path d="M11942 7438 c-43 -57 -177 -233 -297 -393 -120 -159 -241 -318 -268
-353 -42 -53 -48 -65 -36 -76 25 -24 367 -286 372 -286 3 0 98 123 211 273
113 149 269 355 346 456 113 148 138 187 128 197 -20 19 -368 284 -373 284 -2
0 -39 -46 -83 -102z m186 4 c48 -37 122 -94 165 -126 43 -33 80 -63 83 -68 3
-4 -66 -101 -153 -215 -86 -115 -235 -311 -331 -438 -96 -126 -180 -230 -187
-230 -7 0 -48 27 -90 60 -90 70 -248 195 -254 201 -3 3 91 129 543 727 65 86
123 157 128 157 4 0 48 -30 96 -68z"/>
<path d="M4217 7308 l-187 -141 19 -31 c11 -17 73 -107 138 -201 120 -172 192
-276 387 -558 60 -86 113 -157 118 -157 10 0 351 255 369 276 11 13 -52 111
-341 524 -56 80 -145 209 -198 287 -53 79 -101 143 -107 143 -5 0 -94 -64
-198 -142z m287 -10 c442 -640 536 -778 535 -789 0 -11 -191 -160 -328 -257
-17 -11 -33 8 -175 215 -87 125 -229 331 -317 457 -88 126 -158 233 -157 237
6 16 334 259 347 257 7 -2 50 -56 95 -120z"/>
<path d="M12612 6392 c-221 -218 -402 -401 -402 -407 0 -5 76 -89 169 -185
l168 -174 402 402 c283 284 399 407 394 416 -4 8 -57 67 -118 132 -60 65 -130
140 -154 166 -24 27 -46 48 -50 47 -3 0 -187 -179 -409 -397z m559 213 c79
-86 145 -160 147 -164 3 -10 -767 -783 -776 -779 -4 2 -76 75 -160 163 l-152
160 392 387 c216 213 396 387 399 388 4 0 72 -70 150 -155z"/>
<path d="M2615 6149 c-77 -99 -143 -186 -147 -193 -6 -11 79 -87 252 -226 24
-19 82 -67 129 -105 206 -169 445 -361 471 -378 l27 -17 146 191 c81 105 144
195 141 200 -3 5 -73 64 -156 131 -82 68 -180 147 -217 177 -36 30 -147 120
-246 200 -99 80 -193 158 -210 173 -16 15 -35 28 -40 28 -6 0 -74 -81 -150
-181z m254 74 c53 -43 193 -157 311 -253 118 -96 263 -213 322 -260 59 -47
107 -89 107 -95 1 -12 -256 -349 -269 -353 -5 -2 -91 64 -192 146 -101 82
-222 180 -269 218 -227 183 -389 317 -389 323 0 3 37 53 81 111 45 58 104 135
132 173 28 37 56 67 61 67 5 0 52 -35 105 -77z"/>
<path d="M7385 6066 l-190 -21 2 -45 c1 -51 13 -184 42 -480 11 -113 30 -302
41 -420 12 -118 23 -216 26 -219 2 -3 106 6 230 19 157 17 228 28 231 37 3 7
-2 88 -12 181 -9 92 -23 232 -30 312 -8 80 -23 242 -34 360 -11 118 -23 234
-26 258 l-6 42 -42 -1 c-23 -1 -127 -11 -232 -23z m259 -33 c3 -21 13 -108 21
-193 39 -410 57 -597 71 -729 7 -79 14 -149 14 -155 0 -9 -56 -18 -172 -30
-95 -10 -192 -20 -215 -23 l-41 -5 -6 53 c-3 30 -17 173 -31 319 -14 146 -35
360 -46 475 -11 116 -21 226 -22 245 l-2 35 180 21 c257 31 242 31 249 -13z"/>
<path d="M8255 5508 c4 -321 11 -587 15 -592 5 -5 111 -5 241 -1 l232 7 -7
577 c-5 317 -10 579 -13 583 -2 5 -110 8 -240 8 l-236 0 8 -582z m450 550 c2
-7 6 -261 10 -564 l6 -551 -213 -6 c-117 -3 -216 -2 -220 1 -3 4 -9 260 -13
570 l-7 562 216 0 c165 0 218 -3 221 -12z"/>
<path d="M6335 5902 c-44 -21 -133 -62 -197 -91 -64 -29 -123 -58 -131 -64
-13 -10 17 -90 205 -537 120 -289 222 -528 226 -531 4 -4 53 14 108 40 56 25
151 69 212 96 62 28 112 55 112 62 0 6 -26 74 -59 150 -32 76 -122 291 -201
478 -187 447 -182 435 -189 435 -3 0 -42 -17 -86 -38z m119 -79 c21 -49 108
-254 193 -458 85 -203 163 -388 172 -410 35 -79 38 -73 -47 -112 -42 -19 -130
-60 -194 -89 -64 -30 -121 -54 -127 -54 -5 0 -13 10 -17 23 -4 12 -98 242
-210 510 -112 269 -204 492 -204 497 0 8 367 179 386 180 6 0 28 -39 48 -87z"/>
<path d="M10759 5686 c-35 -46 -157 -205 -270 -353 -317 -412 -339 -442 -339
-452 0 -13 348 -306 363 -306 6 0 65 70 129 155 65 85 167 218 226 295 267
346 333 437 329 450 -3 7 -61 57 -128 111 -67 55 -144 118 -172 142 -28 23
-56 42 -62 42 -7 0 -41 -38 -76 -84z m219 -49 c75 -62 152 -124 170 -137 18
-13 31 -29 28 -36 -2 -6 -116 -157 -253 -335 -137 -178 -284 -370 -327 -426
-43 -57 -82 -103 -87 -103 -8 0 -134 104 -276 227 l-62 54 62 83 c71 95 122
163 332 436 83 107 176 230 209 273 32 42 61 77 63 77 2 0 65 -51 141 -113z"/>
<path d="M453 5533 c-107 -3 -113 -5 -117 -26 -3 -12 -7 -118 -11 -234 -3
-117 -10 -331 -17 -475 -22 -528 -13 -1621 17 -2073 3 -44 14 -228 25 -410 35
-597 44 -716 54 -730 8 -9 55 -14 164 -18 l152 -5 0 53 c0 29 -9 201 -20 382
-26 422 -37 719 -52 1348 -12 516 -8 802 23 1813 6 193 9 359 5 367 -4 11 -19
14 -58 13 -29 -1 -104 -4 -165 -5z m211 -26 c-1 -4 -5 -152 -9 -330 -4 -177
-9 -333 -10 -347 -1 -14 -6 -154 -10 -311 l-7 -286 -152 -6 c-83 -3 -154 -2
-158 1 -8 8 5 538 23 984 l12 297 106 4 c150 5 206 3 205 -6z m-40 -1892 c4
-317 9 -609 13 -650 l5 -75 -154 0 -155 0 -6 133 c-4 72 -10 362 -14 644 l-6
512 54 4 c30 2 99 4 155 5 l101 2 7 -575z m13 -759 c3 -2 9 -116 14 -253 5
-136 16 -365 24 -508 9 -143 19 -316 22 -385 l6 -125 -134 3 c-74 2 -139 5
-145 7 -7 2 -14 48 -18 117 -4 62 -16 246 -26 408 -28 427 -43 728 -37 737 6
9 285 8 294 -1z"/>
<path d="M14005 5493 c-57 -53 -279 -249 -564 -501 -108 -95 -197 -176 -199
-180 -1 -5 23 -42 55 -83 31 -40 95 -123 141 -184 46 -60 88 -112 93 -113 11
-4 14 -1 309 263 124 111 248 221 275 245 112 97 235 214 235 224 0 6 -37 61
-83 122 -45 61 -104 143 -132 182 -27 39 -57 71 -65 71 -8 0 -37 -21 -65 -46z
m160 -105 c50 -67 107 -145 127 -174 l38 -52 -173 -155 c-94 -85 -271 -243
-391 -351 -121 -108 -223 -196 -227 -196 -5 0 -43 46 -86 103 -42 56 -101 133
-131 170 -29 37 -52 71 -50 76 2 4 68 65 148 136 80 70 161 142 180 159 48 43
209 186 300 265 41 36 93 83 115 103 22 21 45 38 50 38 6 0 51 -55 100 -122z"/>
<path d="M5000 5293 c-69 -64 -147 -136 -173 -160 l-48 -44 63 -78 c35 -43
128 -156 208 -252 80 -96 215 -258 300 -362 85 -103 157 -186 161 -185 4 2 84
72 179 157 112 101 170 160 168 171 -4 21 -709 869 -723 869 -5 0 -66 -52
-135 -116z m456 -287 c165 -198 319 -384 343 -414 l44 -54 -29 -28 c-80 -78
-299 -270 -306 -268 -4 2 -121 141 -260 309 -321 388 -323 390 -385 464 -29
34 -53 65 -53 68 0 6 25 30 215 205 85 79 112 99 121 89 6 -6 146 -174 310
-371z"/>
<path d="M12929 5388 c-2 -7 -2 -89 1 -183 l5 -170 210 -2 c116 -2 215 0 220
5 6 4 9 74 7 185 l-4 177 -218 0 c-166 0 -219 -3 -221 -12z m411 -28 c0 -15
-7 -20 -25 -20 -14 0 -25 6 -25 13 0 8 -4 7 -10 -3 -7 -11 -10 -12 -10 -2 0
16 -60 6 -73 -12 -6 -7 -7 -4 -3 7 4 12 0 17 -14 17 -13 0 -18 -5 -14 -15 8
-20 -13 -19 -24 1 -8 14 -10 14 -16 -2 -7 -18 -8 -18 -21 -1 -12 16 -13 16
-19 -8 -7 -26 -20 -33 -31 -15 -3 6 -1 10 4 10 6 0 11 7 11 15 0 14 -3 13 -24
-2 -13 -10 -22 -21 -19 -25 2 -5 -3 -8 -12 -8 -9 0 -13 -4 -10 -10 3 -5 15
-10 26 -10 12 0 19 -5 16 -12 -2 -7 -13 -12 -25 -10 -20 3 -40 -20 -37 -43 4
-34 18 -55 38 -55 17 0 19 -2 8 -9 -8 -5 -21 -7 -29 -3 -10 3 -13 1 -8 -7 4
-6 2 -18 -4 -26 -17 -20 -2 -38 26 -31 15 4 24 2 24 -5 0 -7 33 -10 103 -9 56
2 119 0 140 -4 22 -3 37 -2 37 4 0 6 7 10 16 10 9 0 14 -6 12 -12 -4 -10 -54
-14 -195 -16 l-190 -2 -6 67 c-4 38 -7 107 -7 156 l0 87 180 0 c113 0 180 -4
180 -10 0 -5 4 -10 10 -10 5 0 7 7 4 15 -4 8 -1 15 5 15 6 0 11 -9 11 -20z"/>
<path d="M9210 5161 c0 -154 2 -180 16 -185 21 -8 213 -8 337 1 l97 6 0 102
c0 56 -3 136 -6 178 l-7 77 -218 0 -219 0 0 -179z m422 7 c2 -84 2 -156 0
-160 -2 -5 -90 -8 -197 -8 l-194 0 -3 155 -3 154 60 3 c33 2 121 4 197 6 l136
3 4 -153z"/>
<path d="M9416 5267 c9 -31 12 -32 32 -14 12 11 22 13 32 7 13 -9 13 -10 0
-11 -8 -1 -18 -1 -21 -1 -4 1 -15 -8 -25 -19 -17 -19 -17 -21 0 -50 18 -30 18
-30 -3 -36 -20 -5 -30 -23 -12 -23 5 0 11 -11 13 -25 4 -17 1 -25 -8 -25 -22
0 -28 -1 -45 -10 -13 -7 -16 -3 -16 22 0 18 -5 34 -11 36 -19 6 -14 23 13 44
28 22 37 88 11 88 -19 0 -28 -27 -10 -34 21 -8 17 -23 -7 -29 -12 -3 -18 -10
-14 -16 3 -6 -1 -11 -10 -11 -9 0 -15 -6 -14 -12 1 -7 1 -24 0 -37 -1 -19 -4
-21 -16 -11 -17 14 -35 5 -35 -18 0 -13 2 -14 9 -3 12 19 24 -3 16 -29 -5 -14
-2 -20 9 -20 9 0 15 3 15 8 -3 20 2 40 17 58 15 18 15 17 10 -13 -4 -25 -1
-35 14 -43 11 -6 23 -9 27 -9 4 1 16 -1 27 -6 13 -6 21 -3 28 9 8 14 13 15 24
5 8 -6 17 -9 21 -6 3 4 12 2 20 -5 10 -8 17 -8 25 0 7 7 17 8 28 2 13 -7 22
-4 36 13 10 12 12 17 5 10 -19 -16 -45 -5 -30 13 6 8 15 12 18 9 4 -2 8 2 8
10 0 12 -3 12 -16 2 -9 -6 -19 -16 -22 -20 -3 -5 -10 -8 -15 -8 -5 1 -9 -5 -9
-11 0 -7 -7 -13 -15 -13 -8 0 -15 7 -15 15 0 9 -8 14 -18 12 -9 -2 -17 2 -17
8 0 5 6 10 13 10 9 0 9 2 1 8 -9 5 -9 10 0 17 10 9 19 11 43 6 4 0 -1 -7 -12
-14 -14 -11 -15 -16 -5 -22 9 -6 11 -4 5 5 -6 9 -4 12 6 8 8 -3 23 0 34 8 15
11 16 14 3 14 -19 0 -41 24 -30 34 10 11 9 30 -3 38 -18 14 -25 8 -21 -16 3
-16 -3 -31 -19 -46 -13 -13 -22 -31 -21 -44 2 -13 -3 -23 -10 -23 -7 0 -10 5
-7 11 4 5 7 28 8 51 1 29 5 39 16 37 8 -1 5 6 -9 17 l-22 19 25 30 c22 27 28
29 50 19 14 -7 27 -24 31 -39 7 -32 24 -38 24 -8 0 11 -5 20 -11 20 -5 0 -7 5
-4 10 4 6 2 17 -4 24 -7 8 -10 19 -9 26 2 7 -3 15 -9 17 -8 3 -13 -4 -13 -16
0 -12 -4 -21 -9 -21 -6 0 -8 10 -6 22 4 16 2 19 -7 10 -13 -13 -32 -16 -25 -4
3 4 -10 8 -29 9 -32 2 -34 0 -28 -20z"/>
<path d="M4373 5263 l-143 -4 0 -179 0 -180 188 2 187 3 3 160 c4 205 3 206
-51 203 -23 -1 -106 -4 -184 -5z m208 -145 c0 -68 1 -138 2 -156 2 -26 -2 -32
-18 -32 -11 0 -86 -3 -166 -7 l-147 -6 -1 153 c0 83 2 156 5 161 3 5 77 9 165
9 l159 0 1 -122z"/>
<path d="M2018 5138 c-31 -51 -65 -109 -75 -128 -11 -19 -41 -70 -67 -112 -26
-43 -45 -82 -41 -88 6 -10 887 -598 909 -606 13 -5 36 25 104 136 22 36 69
112 106 170 51 81 63 107 53 116 -6 6 -109 73 -227 149 -118 77 -320 208 -448
292 -128 85 -238 156 -246 159 -8 3 -32 -28 -68 -88z m333 -106 c140 -92 341
-224 446 -292 124 -80 191 -130 188 -138 -3 -7 -55 -94 -116 -193 -86 -139
-116 -180 -129 -176 -19 5 -876 572 -883 584 -3 5 25 58 62 118 36 61 86 145
111 188 25 42 50 77 56 77 6 0 125 -76 265 -168z"/>
<path d="M11590 4818 c-470 -401 -700 -600 -700 -608 0 -16 292 -380 304 -379
20 1 861 726 860 741 -1 17 -291 378 -302 378 -4 0 -77 -60 -162 -132z m303
-68 c75 -93 137 -173 137 -178 0 -9 -392 -348 -821 -709 -13 -11 -28 4 -115
114 -54 69 -118 149 -141 177 -32 39 -39 54 -31 64 7 7 82 73 167 146 86 74
266 228 401 344 135 116 250 211 255 211 6 1 72 -75 148 -169z"/>
<path d="M4077 4508 c-139 -189 -257 -363 -254 -373 6 -14 890 -675 903 -675
13 1 279 376 279 394 0 8 -47 50 -105 94 -116 88 -665 496 -747 555 l-52 38
-24 -33z m127 -65 c436 -319 785 -586 779 -596 -30 -51 -250 -350 -260 -354
-10 -4 -125 79 -563 407 -32 23 -314 233 -318 236 -5 3 260 374 266 374 2 0
45 -30 96 -67z"/>
<path d="M14399 4237 c-130 -94 -325 -235 -432 -312 -108 -77 -197 -146 -197
-153 0 -8 39 -80 87 -160 47 -81 100 -171 117 -199 17 -29 34 -53 38 -53 5 0
89 60 189 133 204 149 261 190 336 244 193 140 336 249 340 260 3 7 -34 82
-83 165 -48 84 -99 174 -113 200 -14 26 -30 48 -36 48 -5 0 -116 -78 -246
-173z m331 -5 c46 -81 95 -166 107 -188 l23 -41 -87 -65 c-49 -35 -155 -113
-238 -174 -82 -60 -205 -149 -272 -199 -167 -123 -244 -177 -248 -173 -2 2
-53 87 -113 190 l-110 188 66 48 c37 27 150 109 252 182 102 74 231 168 288
209 150 110 236 171 242 171 3 0 43 -66 90 -148z"/>
<path d="M7993 4315 c-222 -49 -379 -245 -391 -490 -8 -171 42 -308 154 -419
114 -115 260 -162 409 -131 101 21 158 51 234 121 226 209 225 586 -1 801
-112 105 -263 149 -405 118z m218 -29 c90 -27 155 -73 218 -153 169 -212 159
-508 -23 -701 -281 -299 -753 -110 -783 313 -18 249 120 475 330 540 56 18
201 18 258 1z"/>
<path d="M12115 3942 c-93 -65 -208 -144 -255 -176 -47 -33 -168 -116 -270
-185 -236 -159 -229 -154 -230 -165 0 -15 262 -416 272 -416 5 0 75 46 156
102 188 131 297 205 560 385 172 118 213 150 209 165 -8 30 -251 408 -262 408
-5 -1 -86 -54 -180 -118z m299 -96 c64 -101 116 -190 116 -197 0 -8 -87 -72
-192 -144 -106 -71 -302 -206 -437 -299 -134 -93 -251 -169 -259 -170 -18 -1
-256 360 -249 378 6 15 881 616 898 616 4 0 59 -83 123 -184z"/>
<path d="M9531 3968 c-33 -46 -80 -110 -104 -143 -105 -143 -507 -705 -507
-709 0 -9 362 -299 374 -300 8 0 60 62 116 139 57 77 120 163 140 190 21 28
111 154 201 280 90 127 178 250 197 274 18 24 31 47 30 52 -4 10 -371 299
-380 299 -4 0 -34 -37 -67 -82z m249 -80 c93 -73 169 -136 170 -140 0 -3 -39
-61 -87 -128 -49 -67 -95 -131 -103 -144 -16 -24 -202 -281 -350 -486 -50 -69
-97 -131 -105 -139 -12 -12 -39 6 -184 124 -94 75 -171 139 -171 142 0 2 45
68 100 146 97 138 130 183 410 571 74 102 139 186 143 186 5 0 85 -60 177
-132z"/>
<path d="M1545 3809 c-42 -126 -75 -231 -74 -233 2 -1 78 -31 169 -66 91 -34
317 -123 502 -196 186 -74 341 -134 345 -134 4 0 42 103 84 230 55 164 73 232
65 239 -15 12 -986 391 -1002 391 -7 0 -44 -95 -89 -231z m310 128 c77 -30
183 -71 235 -92 484 -188 536 -209 533 -221 -11 -53 -141 -408 -151 -411 -7
-3 -137 44 -290 105 -152 61 -370 147 -485 192 -114 45 -206 85 -204 88 2 4
32 93 67 197 34 105 67 198 71 207 11 20 3 22 224 -65z"/>
<path d="M6427 3819 l-177 -161 32 -41 c76 -97 247 -313 361 -457 241 -302
319 -400 321 -400 12 0 356 315 356 325 0 18 -695 895 -708 894 -4 0 -87 -72
-185 -160z m384 -111 c381 -480 489 -616 489 -621 0 -3 -57 -55 -127 -118 -71
-62 -144 -128 -163 -146 -19 -18 -38 -33 -41 -33 -4 0 -44 48 -90 108 -46 59
-86 109 -89 112 -7 6 -490 614 -504 634 -10 14 -5 19 199 200 66 58 123 106
126 106 4 0 93 -109 200 -242z"/>
<path d="M3566 3242 c-64 -115 -116 -213 -116 -218 0 -10 46 -39 335 -209 552
-325 639 -375 645 -368 13 14 240 425 240 434 0 5 -14 15 -30 24 -25 13 -411
236 -700 405 -208 121 -241 140 -249 140 -5 0 -61 -94 -125 -208z m400 31
c131 -77 335 -195 453 -264 117 -68 215 -129 218 -135 4 -11 -187 -365 -212
-392 -10 -11 -70 20 -326 171 -454 266 -487 286 -559 331 -36 22 -66 41 -68
42 -3 1 115 217 180 327 30 52 44 68 58 64 9 -2 125 -67 256 -144z"/>
<path d="M15025 3359 c-49 -23 -155 -70 -235 -106 -157 -71 -160 -72 -360
-161 -213 -94 -270 -121 -270 -125 0 -11 152 -443 159 -450 4 -4 171 66 372
157 200 90 416 186 479 214 63 28 116 55 118 61 6 17 -152 451 -163 450 -5 0
-50 -18 -100 -40z m100 1 c9 -14 145 -403 142 -406 -1 -2 -70 -32 -152 -67
-134 -58 -282 -124 -400 -177 -259 -118 -380 -169 -386 -162 -5 5 -114 321
-136 393 -3 12 37 35 179 99 210 96 276 125 373 168 39 17 135 61 215 96 156
71 156 71 165 56z"/>
<path d="M12340 2900 c-261 -109 -492 -205 -512 -213 l-37 -15 19 -54 c11 -29
28 -75 38 -103 11 -27 41 -106 66 -175 26 -69 51 -129 56 -134 10 -10 51 5
385 147 540 229 637 272 642 285 7 18 -158 462 -171 461 -6 0 -225 -90 -486
-199z m562 -42 c43 -116 77 -213 75 -214 -3 -3 -685 -294 -839 -359 -76 -31
-143 -55 -148 -53 -14 4 -171 421 -162 429 4 3 32 16 62 28 116 48 808 334
860 357 30 13 60 23 65 23 6 1 45 -95 87 -211z"/>
<path d="M5737 2993 c-90 -159 -187 -340 -187 -350 0 -11 48 -40 560 -343 151
-90 304 -181 339 -202 53 -33 66 -38 76 -26 19 20 225 406 225 420 0 7 -125
87 -278 178 -152 90 -366 218 -474 282 -108 65 -201 118 -206 118 -6 0 -30
-35 -55 -77z m225 -41 c90 -54 298 -179 463 -277 165 -98 302 -179 304 -181 2
-2 -28 -61 -66 -131 -39 -70 -88 -161 -109 -200 -22 -40 -42 -73 -46 -73 -3 0
-100 55 -215 123 -541 320 -709 420 -716 426 -6 6 209 411 219 411 2 0 77 -44
166 -98z"/>
<path d="M10490 2856 c-85 -35 -263 -107 -395 -161 -271 -110 -479 -196 -483
-199 -3 -3 141 -395 164 -444 8 -19 20 -32 27 -29 112 45 432 176 492 202 44
19 159 66 255 105 311 126 302 121 296 143 -2 10 -42 115 -88 233 -57 148 -88
214 -98 214 -8 0 -85 -29 -170 -64z m246 -154 c40 -105 76 -202 79 -215 5 -20
0 -26 -52 -47 -32 -13 -164 -67 -293 -120 -547 -226 -663 -271 -670 -263 -7 7
-141 362 -154 409 -5 17 -1 24 21 32 53 21 649 265 813 332 91 38 169 67 174
66 4 -1 41 -88 82 -194z"/>
<path d="M1320 2468 c-12 -90 -28 -197 -35 -238 -7 -41 -11 -77 -9 -79 3 -4
136 -33 474 -105 91 -19 249 -53 353 -76 204 -44 227 -46 228 -27 0 6 17 113
38 237 21 124 34 229 30 233 -6 8 -193 48 -604 132 -66 13 -184 38 -263 55
-78 16 -153 30 -166 30 -22 0 -23 -6 -46 -162z m357 82 c158 -33 315 -66 348
-73 33 -8 126 -27 207 -43 133 -26 148 -31 148 -50 0 -11 -13 -99 -30 -195
-16 -96 -30 -187 -30 -202 0 -35 -15 -41 -76 -27 -27 6 -110 24 -184 40 -416
88 -755 162 -759 165 -4 5 8 101 34 265 7 47 16 106 20 133 4 30 11 47 20 47
8 0 144 -27 302 -60z"/>
<path d="M8025 2623 c-122 -17 -221 -67 -305 -152 -110 -112 -170 -261 -170
-424 0 -82 23 -203 43 -231 10 -14 52 -17 312 -21 165 -3 386 -7 490 -10 105
-2 195 -1 201 3 31 20 56 199 43 303 -31 232 -200 445 -404 508 -65 20 -162
31 -210 24z m208 -44 c162 -54 300 -201 363 -389 23 -68 27 -284 6 -342 l-14
-38 -322 0 c-178 0 -397 3 -488 7 l-166 6 -12 26 c-7 14 -17 65 -23 114 -52
413 291 735 656 616z"/>
<path d="M3166 2015 c-33 -133 -55 -240 -50 -244 5 -5 104 -36 219 -70 693
-203 836 -243 841 -238 3 3 33 106 66 229 33 122 62 231 65 240 6 19 11 17
-337 113 -233 65 -380 107 -560 161 -69 20 -138 39 -155 41 l-30 5 -59 -237z
m349 140 c143 -42 372 -107 509 -145 137 -38 251 -72 254 -75 6 -6 -106 -437
-116 -447 -4 -4 -61 9 -127 28 -66 19 -183 53 -260 76 -77 22 -183 53 -235 69
-52 15 -165 49 -250 75 -85 25 -156 47 -158 49 -2 1 22 100 53 219 30 120 55
219 55 222 0 8 15 4 275 -71z"/>
<path d="M14935 1944 c-11 -2 -162 -8 -335 -14 -218 -8 -317 -15 -322 -23 -7
-11 1 -477 7 -485 5 -6 38 -5 460 12 231 9 458 17 505 19 l85 2 0 245 0 245
-190 1 c-104 1 -199 0 -210 -2z m378 -151 c4 -75 7 -176 7 -224 l0 -87 -62 -6
c-63 -5 -795 -30 -898 -31 l-55 0 0 225 0 225 175 7 c334 15 616 25 721 26
l106 2 6 -137z"/>
<path d="M12845 1845 c-198 -7 -441 -15 -540 -17 l-180 -3 3 -250 c2 -138 8
-254 13 -260 9 -9 1048 21 1076 32 11 4 13 47 12 227 -1 219 -5 287 -18 285
-3 -1 -168 -7 -366 -14z m359 -241 c4 -124 6 -228 3 -230 -11 -11 -1037 -48
-1047 -37 -4 4 -10 110 -12 234 l-4 227 180 6 c211 8 687 22 797 24 l76 2 7
-226z"/>
<path d="M6060 1764 c-146 -7 -350 -17 -455 -23 -104 -6 -202 -11 -217 -11
l-28 0 0 -249 c0 -179 3 -252 12 -257 14 -9 66 -8 443 12 165 8 386 18 490 22
l190 7 0 255 0 255 -85 0 c-47 0 -204 -5 -350 -11z m420 -242 l1 -238 -438
-18 c-241 -10 -485 -22 -543 -25 -58 -4 -107 -6 -110 -3 -3 2 -6 109 -8 238
l-4 234 59 1 c32 1 72 3 88 4 27 3 282 17 655 35 80 4 180 7 222 8 l77 2 1
-238z"/>
<path d="M10062 1713 l-232 -3 2 -258 3 -257 560 3 c308 2 568 6 578 9 18 5
19 17 12 251 -4 136 -9 250 -12 255 -4 6 -349 6 -911 0z m889 -25 c1 -7 4
-113 8 -235 l6 -221 -140 -6 c-77 -3 -325 -7 -551 -9 l-411 -3 -7 75 c-3 41
-6 148 -6 237 l0 164 278 3 c789 8 822 7 823 -5z"/>
<path d="M13330 983 c-19 -2 -72 -6 -118 -9 l-82 -6 2 -181 3 -182 90 1 c50 0
143 4 208 8 l117 8 0 184 0 185 -92 -3 c-51 -1 -109 -4 -128 -5z"/>
<path d="M8615 943 c-110 -2 -486 -7 -835 -11 l-635 -7 -3 -240 c-1 -132 0
-251 3 -264 l6 -23 377 6 c207 3 616 8 907 11 292 3 560 8 598 11 l67 6 -2
257 -3 256 -140 0 c-77 1 -230 -1 -340 -2z m458 -150 c4 -75 7 -182 7 -238 l0
-103 -121 -7 c-141 -9 -152 -3 -161 78 -7 64 -30 87 -85 87 -32 0 -43 -4 -43
-15 0 -11 11 -15 40 -15 34 0 42 -4 50 -26 6 -14 10 -39 10 -55 0 -28 -1 -29
-50 -29 -38 0 -50 -4 -50 -15 0 -8 -7 -15 -15 -15 -11 0 -15 12 -15 44 0 73
-11 107 -37 119 -20 9 -31 8 -54 -5 -26 -15 -29 -15 -38 -1 -13 23 -34 7 -21
-17 23 -43 8 -140 -21 -140 -16 0 -19 8 -19 58 0 34 -6 66 -15 78 -17 25 -62
36 -105 28 -47 -10 -35 -24 20 -24 45 0 52 -3 60 -26 6 -14 10 -45 10 -70 0
-35 -4 -44 -17 -45 -10 0 -27 -2 -38 -4 -25 -5 -35 11 -35 58 0 20 -4 37 -10
37 -11 0 -11 -3 -13 -52 0 -18 -5 -36 -11 -40 -12 -8 -166 -9 -166 -2 0 3 9
17 19 32 11 15 22 51 25 80 6 48 5 53 -11 50 -14 -2 -19 -16 -23 -54 -3 -28
-11 -59 -19 -68 -17 -20 -64 -21 -81 -1 -10 12 -8 16 13 24 30 12 33 16 42 64
6 30 4 37 -9 37 -9 0 -18 -12 -22 -27 -10 -48 -13 -53 -29 -53 -11 0 -15 11
-15 40 0 30 -4 40 -16 40 -27 0 -13 -114 17 -146 l22 -24 -61 0 c-71 0 -73 4
-42 71 11 24 20 56 20 71 0 25 -3 27 -47 30 -44 3 -48 5 -51 31 -5 44 -23 31
-20 -15 3 -43 3 -43 43 -43 46 0 48 -7 18 -92 l-18 -53 -82 0 -83 0 0 60 c0
51 -4 65 -25 85 -29 29 -105 36 -105 10 0 -11 11 -15 40 -15 48 0 60 -18 60
-89 l0 -51 -55 0 c-30 0 -55 5 -55 10 0 6 -7 10 -15 10 -11 0 -15 11 -15 43 0
23 -6 53 -13 66 -13 27 -59 44 -95 36 -31 -7 -18 -25 18 -25 41 0 60 -24 60
-76 l0 -44 -49 0 c-34 0 -51 -4 -55 -15 -4 -12 -28 -15 -126 -15 l-120 0 0
245 0 245 468 1 c399 2 1146 11 1363 17 l66 2 6 -137z"/>
<path d="M9417 883 l-107 -4 2 -187 3 -187 200 -2 c110 -1 212 1 228 4 l27 5
0 173 c0 96 -3 180 -6 189 -6 17 -43 18 -347 9z m-5 -29 c37 -6 37 -7 33 -47
-2 -25 2 -49 12 -64 19 -29 33 -30 33 -2 0 15 5 19 19 14 15 -4 21 1 30 27 9
25 14 29 24 19 9 -10 8 -15 -5 -25 -10 -7 -15 -16 -11 -19 3 -4 1 -7 -5 -7 -7
0 -12 -4 -12 -10 0 -5 9 -10 21 -10 17 0 19 -4 13 -17 -4 -10 -8 -32 -8 -49 0
-23 -4 -30 -13 -27 -7 3 -13 20 -13 38 0 19 -4 36 -9 39 -11 7 -23 -22 -15
-35 3 -5 -5 -9 -18 -9 l-23 -1 25 -20 c14 -12 25 -26 26 -33 3 -27 5 -30 13
-17 7 11 11 9 20 -8 7 -11 19 -21 28 -21 12 0 13 3 4 14 -10 11 -10 20 0 38 9
17 14 19 17 8 7 -20 32 -44 38 -37 4 3 2 12 -2 19 -15 22 -10 64 6 64 8 0 25
4 37 8 20 6 21 4 16 -32 -4 -31 -2 -39 11 -39 12 0 15 5 10 16 -3 9 -7 28 -9
42 -1 14 -5 31 -9 38 -4 6 0 23 9 37 10 15 13 33 9 46 -4 13 -1 24 7 29 10 6
8 9 -8 10 -76 4 -78 3 -81 -19 -2 -12 -8 -22 -14 -22 -6 0 -8 9 -5 21 7 25
-18 37 -44 21 -10 -7 -20 -8 -24 -2 -3 5 -14 8 -25 7 -18 -1 -25 -15 -21 -39
0 -5 -6 -8 -14 -8 -10 0 -15 11 -15 35 l0 35 135 0 135 0 0 -165 0 -165 -200
0 -200 0 0 165 c0 184 -6 171 72 159z"/>
<path d="M4214 819 c-8 -14 -6 -348 3 -362 4 -6 346 -4 371 2 1 1 2 84 2 186
l0 185 -184 0 c-127 0 -187 -4 -192 -11z m354 -179 l2 -160 -170 0 -170 0 0
160 0 160 168 0 168 0 2 -160z"/>
</g>
</svg>
